<svg width="1818" height="1360" viewBox="0 0 1818 1360" fill="none" xmlns="http://www.w3.org/2000/svg">
<path d="M582.956 232.631C551.316 325.89 557.3 384.359 600.904 408.038C666.311 443.556 821.836 457.763 886.845 534.812C951.852 611.859 1150.07 552.296 1183.97 420.058C1217.87 287.821 1278.9 84 957.054 84C742.485 84 617.788 133.543 582.956 232.631Z" fill="#FFFA72"/>
<path d="M55.9024 416.779C-32.7287 678.289 -15.9676 842.243 106.177 908.642C289.398 1008.24 725.059 1048.08 907.165 1264.13C1089.26 1480.18 1644.51 1313.16 1739.47 942.349C1834.43 571.539 2005.41 0 1103.84 0C502.78 0 153.473 138.923 55.9024 416.779Z" fill="#D91E76"/>
<path d="M99.9197 401.408C16.0175 648.881 31.8843 804.035 147.512 866.869C320.957 961.121 733.374 998.821 905.763 1203.28C1078.15 1407.73 1603.77 1249.67 1693.66 898.767C1783.56 547.861 1945.41 7 1091.94 7C522.954 7 192.285 138.467 99.9197 401.408Z" fill="#D91E96"/>
<path d="M143.906 386.036C64.7818 619.473 79.7451 765.826 188.788 825.096C352.357 914.002 741.289 949.564 903.862 1142.42C1066.43 1335.28 1562.12 1186.19 1646.9 855.185C1731.67 524.183 1884.31 14 1079.44 14C542.852 14 231.012 138.01 143.906 386.036Z" fill="#D91EB6"/>
<path d="M187.924 370.665C113.528 590.064 127.597 727.617 230.123 783.324C383.916 866.883 749.603 900.307 902.46 1081.57C1055.31 1262.83 1521.38 1122.7 1601.09 811.603C1680.79 500.505 1824.31 21 1067.54 21C563.026 21 269.823 137.553 187.924 370.665Z" fill="#D91ED6"/>
<path d="M231.91 355.294C162.292 560.656 175.458 689.409 271.399 741.551C415.316 819.765 757.519 851.049 900.559 1020.72C1043.59 1190.38 1479.73 1059.22 1554.32 768.021C1628.91 476.826 1763.21 28 1055.04 28C582.923 28 308.55 137.096 231.91 355.294Z" fill="#BB1ED9"/>
<path d="M275.927 340.229C211.039 531.747 223.31 651.819 312.734 700.446C446.875 773.387 765.833 802.563 899.157 960.79C1032.48 1119.01 1438.99 996.696 1508.51 725.132C1578.03 453.569 1703.21 35 1043.14 35C603.097 35 347.361 136.741 275.927 340.229Z" fill="#9C1ED9"/>
<path d="M319.914 324.858C259.803 502.339 271.17 613.611 354.011 658.674C478.275 726.268 773.748 753.306 897.256 899.936C1020.76 1046.56 1397.34 933.21 1461.74 681.55C1526.15 429.89 1642.1 42 1030.64 42C622.995 42 386.088 136.284 319.914 324.858Z" fill="#5C1ED9"/>
<path d="M362.962 309.487C307.531 472.931 318.014 575.402 394.404 616.901C508.993 679.15 781.461 704.049 895.353 839.082C1009.24 974.113 1356.5 869.725 1415.89 637.968C1475.28 406.212 1582.21 49 1018.35 49C642.445 49 423.984 135.827 362.962 309.487Z" fill="#7C1ED9"/>
<path d="M406.949 294.116C356.295 443.522 365.874 537.193 435.681 575.128C540.393 632.031 789.377 654.792 893.451 778.228C997.523 901.662 1314.85 806.239 1369.12 594.386C1423.39 382.534 1521.11 56 1005.85 56C662.343 56 462.711 135.37 406.949 294.116Z" fill="#9C1ED9"/>
<path d="M450.966 278.744C405.042 414.114 413.726 498.985 477.016 533.356C571.952 584.912 797.691 605.534 892.049 717.374C986.405 829.211 1274.11 742.753 1323.31 550.804C1372.52 358.856 1461.11 63 993.955 63C682.516 63 501.522 134.913 450.966 278.744Z" fill="#BB1ED9"/>
<path d="M494.952 263.373C453.806 384.706 461.587 460.776 518.292 491.583C603.352 537.793 805.606 556.277 890.148 656.52C974.687 756.76 1232.46 679.267 1276.54 507.222C1320.63 335.177 1400 70 981.452 70C702.414 70 540.249 134.456 494.952 263.373Z" fill="#D91EB6"/>
<path d="M538.97 248.002C502.552 355.298 509.439 422.567 559.627 449.81C634.911 490.675 813.92 507.02 888.746 595.666C963.569 684.31 1191.72 615.782 1230.73 463.64C1269.75 311.499 1340.01 77 969.556 77C722.588 77 579.061 133.999 538.97 248.002Z" fill="#D91E96"/>
</svg>
